<?xml version="1.0" encoding="utf-8"?>
<!-- Generator: Adobe Illustrator 23.0.4, SVG Export Plug-In . SVG Version: 6.00 Build 0)  -->
<svg version="1.1" id="Capa_1" xmlns="http://www.w3.org/2000/svg" xmlns:xlink="http://www.w3.org/1999/xlink" x="0px" y="0px"
	 viewBox="0 0 46 64" style="enable-background:new 0 0 46 64;" xml:space="preserve">
<style type="text/css">
	.st0{fill:#6C63FF;}
	.st1{fill:#3F3D56;}
	.st2{fill:#F2F2F2;}
</style>
<title>DE263869-6269-4A21-928C-0554A09489AA</title>
<desc>Created with sketchtool.</desc>
<g id="Newsletter-Interface">
	<g id="Newsletter---Home---iPhone-8-Plus" transform="translate(-348.000000, -995.000000)">
		<g id="Illustration-Footer" transform="translate(348.000000, 995.000000)">
			<g>
				<g transform="translate(23.000000, 32.000000) scale(-1, 1) translate(-23.000000, -32.000000) ">
					<circle id="Oval" class="st0" cx="22" cy="42" r="20"/>
					<path id="Path" class="st1" d="M10.2,13.8C12.7,19.8,19,23,19,23s2.3-6.7-0.2-12.8S10,1,10,1S7.7,7.7,10.2,13.8z"/>
					<path class="st0" d="M12.3,12.6C17.6,16.8,19,24,19,24s-7.1,0.5-12.3-3.6S0,9,0,9S7.1,8.5,12.3,12.6z"/>
					<path class="st1" d="M20.1,10.3C17.7,16.4,20,23,20,23s6.4-3.2,8.8-9.3S29,1,29,1S22.6,4.2,20.1,10.3z"/>
					<path class="st0" d="M22.8,11.3c1.1,6.6-2.9,12.7-2.9,12.7s-5.7-4.6-6.8-11.3S16.1,0,16.1,0S21.7,4.6,22.8,11.3z"/>
					<circle class="st2" cx="21.5" cy="39.5" r="10.5"/>
					<circle class="st1" cx="26.5" cy="35.5" r="3.5"/>
					<ellipse class="st0" cx="40" cy="51.5" rx="6" ry="-4.5"/>
					<ellipse id="Oval-Copy" class="st0" cx="10" cy="59.5" rx="6" ry="-4.5"/>
				</g>
			</g>
		</g>
	</g>
</g>
</svg>
