<?xml version="1.0" encoding="UTF-8"?>
<svg width="130px" height="154px" viewBox="0 0 130 154" version="1.1" xmlns="http://www.w3.org/2000/svg" xmlns:xlink="http://www.w3.org/1999/xlink">
    <!-- Generator: sketchtool 56.2 (101010) - https://sketch.com -->
    <title>097C5A21-76A0-4648-BB1B-40FA8823C326</title>
    <desc>Created with sketchtool.</desc>
    <g id="Newsletter-Interface" stroke="none" stroke-width="1" fill="none" fill-rule="evenodd">
        <g id="Newsletter---Thank-you" transform="translate(-1018.000000, -203.000000)">
            <g id="Illustration-Thank-you" transform="translate(1018.000000, 202.000000)">
                <g id="Illustration/Thank-you/Desktop">
                    <g id="Illustration">
                        <circle id="Oval" fill="#6C63FF" fill-rule="nonzero" cx="62" cy="107" r="48"></circle>
                        <g id="favourite" transform="translate(96.000000, 0.000000)" fill="#6C63FF" stroke="#6C63FF" stroke-linecap="square" stroke-width="2">
                            <path d="M18.1398172,31.0726315 L15.8923172,29.0584626 C7.90981716,21.932577 2.63981716,17.2328495 2.63981716,11.4650021 C2.63981716,6.76527456 6.39081716,3.07263151 11.1648172,3.07263151 C13.8618172,3.07263151 16.4503172,4.30859881 18.1398172,6.26173232 C19.8293172,4.30859881 22.4178172,3.07263151 25.1148172,3.07263151 C29.8888172,3.07263151 33.6398172,6.76527456 33.6398172,11.4650021 C33.6398172,17.2328495 28.3698172,21.932577 20.3873172,29.0737215 L18.1398172,31.0726315 Z" id="Path" transform="translate(18.139817, 17.072632) rotate(-9.000000) translate(-18.139817, -17.072632) "></path>
                        </g>
                        <path d="M32.8551865,40.7217737 C38.993236,55.3573234 54.6139123,63 54.6139123,63 C54.6139123,63 60.282863,46.9137759 54.1448135,32.2782263 C48.006764,17.6426766 32.3860877,10 32.3860877,10 C32.3860877,10 26.717137,26.0862307 32.8551865,40.7217737 Z" id="Path" fill="#3F3D56" fill-rule="nonzero"></path>
                        <path d="M38.8143751,36.5104297 C51.5169274,46.1505215 55,62.954891 55,62.954891 C55,62.954891 37.8881771,64.1296115 25.1856249,54.4895734 C12.4830726,44.8495353 9,28.0451121 9,28.0451121 C9,28.0451121 26.1118229,26.8703581 38.8143751,36.5104297 Z" id="Path" fill="#6C63FF" fill-rule="nonzero"></path>
                        <path d="M55.7472135,32.3769051 C49.6918363,47.0124535 55.5357676,63 55.5357676,63 C55.5357676,63 71.1974093,55.2586433 77.2527865,40.6230949 C83.3081637,25.9875465 77.4642324,10 77.4642324,10 C77.4642324,10 61.8025907,17.7413567 55.7472135,32.3769051 Z" id="Path" fill="#3F3D56" fill-rule="nonzero"></path>
                        <path d="M63.5784444,33.7535515 C66.0355875,49.4936655 56.9490557,64 56.9490557,64 C56.9490557,64 43.8787073,52.9865557 41.4215575,37.2464485 C38.9644077,21.5063412 48.0509462,7 48.0509462,7 C48.0509462,7 61.1212946,18.0134443 63.5784444,33.7535515 Z" id="Path" fill="#6C63FF" fill-rule="nonzero"></path>
                        <circle id="Oval" fill="#F2F2F2" fill-rule="nonzero" cx="59" cy="102" r="25"></circle>
                        <path d="M58.8081097,101.366699 C66.8081097,101.366699 66.8081097,108.418278 66.8081097,104 C66.8081097,99.581722 63.2263877,96 58.8081097,96 C54.3898317,96 50.8081097,99.581722 50.8081097,104 C50.8081097,108.418278 50.8081097,101.366699 58.8081097,101.366699 Z" id="Oval" fill="#3F3D56" fill-rule="nonzero" transform="translate(58.808110, 100.727627) rotate(-12.000000) translate(-58.808110, -100.727627) "></path>
                        <ellipse id="Oval" fill="#6C63FF" fill-rule="nonzero" transform="translate(97.000000, 73.500000) rotate(-50.000000) translate(-97.000000, -73.500000) " cx="97" cy="73.5" rx="14" ry="10.5"></ellipse>
                        <ellipse id="Oval-Copy" fill="#6C63FF" fill-rule="nonzero" cx="14" cy="87.5" rx="14" ry="10.5"></ellipse>
                    </g>
                </g>
            </g>
        </g>
    </g>
</svg>