<?xml version="1.0" encoding="utf-8"?>
<!-- Generator: Adobe Illustrator 23.0.4, SVG Export Plug-In . SVG Version: 6.00 Build 0)  -->
<svg version="1.1" id="Capa_1" xmlns="http://www.w3.org/2000/svg" xmlns:xlink="http://www.w3.org/1999/xlink" x="0px" y="0px"
	 viewBox="0 0 130 154" style="enable-background:new 0 0 130 154;" xml:space="preserve">
<style type="text/css">
	.st0{fill:#6C63FF;}
	.st1{fill-rule:evenodd;clip-rule:evenodd;fill:#6C63FF;stroke:#6C63FF;stroke-width:2;stroke-linecap:square;}
	.st2{fill:#3F3D56;}
	.st3{fill:#F2F2F2;}
</style>
<title>097C5A21-76A0-4648-BB1B-40FA8823C326</title>
<desc>Created with sketchtool.</desc>
<g id="Newsletter-Interface">
	<g id="Newsletter---Thank-you" transform="translate(-1018.000000, -203.000000)">
		<g id="Illustration-Thank-you" transform="translate(1018.000000, 202.000000)">
			<g>
				<g id="Illustration">
					<circle id="Oval" class="st0" cx="62" cy="107" r="48"/>
					<g id="favourite" transform="translate(96.000000, 0.000000)">
						<path id="Path" class="st1" d="M20.3,30.9l-2.5-1.6C8.8,23.5,2.9,19.7,2,14C1.2,9.3,4.3,5.1,9.1,4.3c2.7-0.4,5.4,0.4,7.4,2.1
							c1.4-2.2,3.7-3.8,6.4-4.2c4.7-0.7,9,2.3,9.7,7c0.9,5.7-3.6,11.2-10.3,19.5L20.3,30.9z"/>
					</g>
					<path class="st2" d="M32.9,40.7C39,55.4,54.6,63,54.6,63s5.7-16.1-0.5-30.7S32.4,10,32.4,10S26.7,26.1,32.9,40.7z"/>
					<path class="st0" d="M38.8,36.5C51.5,46.2,55,63,55,63s-17.1,1.2-29.8-8.5S9,28,9,28S26.1,26.9,38.8,36.5z"/>
					<path class="st2" d="M55.7,32.4C49.7,47,55.5,63,55.5,63s15.7-7.7,21.7-22.4C83.3,26,77.5,10,77.5,10S61.8,17.7,55.7,32.4z"/>
					<path class="st0" d="M63.6,33.8C66,49.5,56.9,64,56.9,64S43.9,53,41.4,37.2S48.1,7,48.1,7S61.1,18,63.6,33.8z"/>
					<circle class="st3" cx="59" cy="102" r="25"/>
					<path class="st2" d="M58.9,101.4c7.8-1.7,9.3,5.2,8.4,0.9s-5.2-7.1-9.5-6.2c-4.3,0.9-7.1,5.2-6.2,9.5
						C52.6,109.9,51.1,103,58.9,101.4z"/>
					<ellipse transform="matrix(0.6428 -0.766 0.766 0.6428 -21.6547 100.5614)" class="st0" cx="97" cy="73.5" rx="14" ry="10.5"/>
					<ellipse id="Oval-Copy" class="st0" cx="14" cy="87.5" rx="14" ry="10.5"/>
				</g>
			</g>
		</g>
	</g>
</g>
</svg>
