<?xml version="1.0" encoding="utf-8"?>
<!-- Generator: Adobe Illustrator 23.0.4, SVG Export Plug-In . SVG Version: 6.00 Build 0)  -->
<svg version="1.1" id="Capa_1" xmlns="http://www.w3.org/2000/svg" xmlns:xlink="http://www.w3.org/1999/xlink" x="0px" y="0px"
	 viewBox="0 0 39.9 58.6" style="enable-background:new 0 0 39.9 58.6;" xml:space="preserve">
<style type="text/css">
	.st0{fill:#6C63FF;}
	.st1{fill:#3F3D56;}
	.st2{fill:#F2F2F2;}
</style>
<title>DEA7C178-F028-417B-BB0C-C8921E172447</title>
<desc>Created with sketchtool.</desc>
<g id="Newsletter-Interface">
	<g transform="translate(-683.000000, -900.000000)">
		<g id="Conversion" transform="translate(216.000000, 900.000000)">
			<g id="Illustration-Conversion" transform="translate(467.000000, 0.000000)">
				<g>
					<g>
						<circle id="Oval" class="st0" cx="20.5" cy="38.5" r="18.5"/>
						<path id="Path" class="st1" d="M9.1,12.6c2.3,5.5,8.1,8.4,8.1,8.4s2.1-6.1-0.2-11.6S8.9,1,8.9,1S6.8,7.1,9.1,12.6z"/>
						<path class="st0" d="M11.7,11.2c5,3.6,6.3,9.8,6.3,9.8s-6.7,0.4-11.7-3.1C1.4,14.3,0,8,0,8S6.7,7.6,11.7,11.2z"/>
						<path class="st1" d="M18,9.4C15.8,15,17.9,21,17.9,21s5.8-2.9,8-8.4S26.1,1,26.1,1S20.3,3.9,18,9.4z"/>
						<path class="st0" d="M20.8,10.3c1,6.1-2.6,11.7-2.6,11.7s-5.1-4.3-6.1-10.3S14.8,0,14.8,0S19.9,4.3,20.8,10.3z"/>
						<circle class="st2" cx="19.5" cy="36.5" r="9.5"/>
						<circle class="st1" cx="17" cy="40" r="3"/>
						<ellipse transform="matrix(0.8746 -0.4848 0.4848 0.8746 -20.2743 23.6051)" class="st0" cx="35.5" cy="51" rx="4" ry="5.5"/>
						
							<ellipse id="Oval-Copy" transform="matrix(0.809 -0.5878 0.5878 0.809 -29.9261 15.897)" class="st0" cx="9.5" cy="54" rx="5.5" ry="4"/>
					</g>
				</g>
			</g>
		</g>
	</g>
</g>
</svg>
