<?xml version="1.0" encoding="utf-8"?>
<!-- Generator: Adobe Illustrator 23.0.4, SVG Export Plug-In . SVG Version: 6.00 Build 0)  -->
<svg version="1.1" id="Capa_1" xmlns="http://www.w3.org/2000/svg" xmlns:xlink="http://www.w3.org/1999/xlink" x="0px" y="0px"
	 viewBox="0 0 41 42" style="enable-background:new 0 0 41 42;" xml:space="preserve">
<style type="text/css">
	.st0{fill:none;stroke:url(#Path_1_);stroke-width:2;stroke-linecap:square;}
</style>
<title>4C0EE6AB-7034-4833-B3C9-93D4BBA288F8</title>
<desc>Created with sketchtool.</desc>
<g id="Newsletter-Interface">
	<g id="Newsletter---Home---iPhone-8-Plus" transform="translate(-48.000000, -758.000000)">
		<g id="Features" transform="translate(36.000000, 571.000000)">
			<g id="Feature-3" transform="translate(0.000000, 176.000000)">
				<g id="Icon-Tools" transform="translate(13.000000, 12.000000)">
					<g>
						
							<linearGradient id="Path_1_" gradientUnits="userSpaceOnUse" x1="-270.7516" y1="430.7222" x2="-269.8018" y2="429.7222" gradientTransform="matrix(38.3433 0 0 -39.3433 10382.4375 16946.0684)">
							<stop  offset="0" style="stop-color:#A894F5"/>
							<stop  offset="1" style="stop-color:#6F5BE8"/>
						</linearGradient>
						<path id="Path" class="st0" d="M15.5,23.5C14.4,23.8,13.2,24,12,24C5.4,24,0,18.6,0,12c0-1.9,0.4-3.6,1.2-5.2l8.7,8.7l5.7-5.7
							L6.8,1.2C8.4,0.4,10.1,0,12,0c6.6,0,12,5.4,12,12c0,1.8-0.4,3.4-1.1,4.9l14.2,14.2c1.6,1.6,1.6,4.1,0,5.7l-1.3,1.3
							c-1.6,1.6-4.1,1.6-5.7,0L15.5,23.5z"/>
					</g>
				</g>
			</g>
		</g>
	</g>
</g>
</svg>
