<?xml version="1.0" encoding="utf-8"?>
<!-- Generator: Adobe Illustrator 23.0.4, SVG Export Plug-In . SVG Version: 6.00 Build 0)  -->
<svg version="1.1" id="Capa_1" xmlns="http://www.w3.org/2000/svg" xmlns:xlink="http://www.w3.org/1999/xlink" x="0px" y="0px"
	 viewBox="0 0 92 92" style="enable-background:new 0 0 92 92;" xml:space="preserve">
<style type="text/css">
	.st0{fill:url(#Rectangle_1_);}
	.st1{fill:#FFFFFF;}
</style>
<title>2A38B0C6-2C5B-43E9-A85B-A7CBF2F7E509</title>
<desc>Created with sketchtool.</desc>
<g id="Newsletter-Interface">
	<g id="Newsletter---Home---iPhone-8-Plus" transform="translate(-36.000000, -44.000000)">
		<g id="UXDB---Logo" transform="translate(36.000000, 44.000000)">
			
				<linearGradient id="Rectangle_1_" gradientUnits="userSpaceOnUse" x1="-248.3033" y1="462.8454" x2="-247.3034" y2="461.8456" gradientTransform="matrix(92 0 0 -92 22841 42578.8789)">
				<stop  offset="5.000000e-02" style="stop-color:#A894F5"/>
				<stop  offset="0.82" style="stop-color:#7A66EB"/>
				<stop  offset="1" style="stop-color:#6F5BE8"/>
			</linearGradient>
			<path id="Rectangle" class="st0" d="M3.1,0h85.7C90.6,0,92,1.4,92,3.1v85.7c0,1.7-1.4,3.1-3.1,3.1H3.1C1.4,92,0,90.6,0,88.9V3.1
				C0,1.4,1.4,0,3.1,0z"/>
			<path id="Path" class="st1" d="M43.2,20.2v19.7c0,6.8-5.7,10.5-13.7,10.5s-13.7-3.8-13.7-10.5V20.2h7v19.5c0,3.2,2.9,5.1,6.7,5.1
				s6.8-1.9,6.8-5.1V20.2H43.2z"/>
			<polygon class="st1" points="62.2,30.3 62.5,30.3 69.2,20.2 77.1,20.2 67,35.1 77.3,50 69.3,50 62.5,39.8 62.2,39.8 55.4,50 
				47.4,50 57.8,35.1 47.6,20.2 55.5,20.2 			"/>
			<path id="Shape" class="st1" d="M11,71.7V61.4h3.9c3.4,0,5.4,1.9,5.4,5.1s-2,5.1-5.5,5.1H11z M14.7,70.1c2.4,0,3.6-1.2,3.6-3.5
				S17.1,63,14.8,63h-1.7v7L14.7,70.1z"/>
			<path class="st1" d="M21.8,69.5c0-1.7,1.6-2.2,3.2-2.3c1.5-0.1,2.1-0.2,2.1-0.7l0,0c0-0.8-0.5-1.2-1.4-1.2
				c-0.7-0.1-1.4,0.3-1.8,1L22.1,66c0.4-1.4,1.8-2.1,3.6-2.1c1.8,0,3.5,0.6,3.5,2.6v5.1h-1.9v-1.1h-0.1c-0.5,0.8-1.5,1.3-2.5,1.2
				C23,71.8,21.8,71,21.8,69.5z M27.2,68.9V68c-0.6,0.2-1.2,0.3-1.8,0.4c-0.9,0.1-1.6,0.4-1.6,1.1c0,0.7,0.6,1,1.4,1
				C26.4,70.5,27.2,69.8,27.2,68.9L27.2,68.9z"/>
			<path class="st1" d="M35.4,65.4h-1.7v4c0,0.7,0.4,0.9,0.9,0.9c0.2,0,0.4,0,0.6-0.1l0.3,1.4c-0.4,0.1-0.8,0.2-1.2,0.2
				c-1.5,0-2.7-0.7-2.7-2.1v-4.3h-1.2V64h1.2v-1.8h2V64h1.7L35.4,65.4z"/>
			<path class="st1" d="M36.7,69.5c0-1.7,1.6-2.2,3.2-2.3C41.5,67,42,67,42,66.5l0,0c0-0.8-0.5-1.2-1.4-1.2c-0.7-0.1-1.4,0.3-1.7,1
				L37,66c0.5-1.4,1.8-2.1,3.6-2.1c1.6,0,3.5,0.6,3.5,2.6v5.1h-1.9v-1.1h-0.1c-0.5,0.8-1.5,1.3-2.5,1.2C37.9,71.8,36.7,71,36.7,69.5
				z M42,68.9V68c-0.6,0.2-1.2,0.3-1.8,0.4c-0.9,0.1-1.6,0.4-1.6,1.1c0,0.7,0.6,1,1.4,1C41.3,70.5,42,69.8,42,68.9L42,68.9z"/>
			<path class="st1" d="M46.2,61.4h2v3.8h0.1c0.5-0.9,1.4-1.4,2.4-1.4c2,0,3.5,1.4,3.5,3.9c0,2.5-1.5,4-3.5,4c-1,0.1-2-0.5-2.4-1.3
				h-0.1v1.2h-2L46.2,61.4z M50.2,70.3c1.3,0,2-1,2-2.5s-0.7-2.4-2-2.4c-1.3,0-2,1-2,2.4S48.8,70.3,50.2,70.3L50.2,70.3z"/>
			<path class="st1" d="M55.5,69.5c0-1.7,1.6-2.2,3.2-2.3c1.7-0.2,2.1-0.2,2.1-0.7l0,0c0-0.8-0.5-1.2-1.4-1.2
				c-0.7-0.1-1.4,0.3-1.7,1L55.8,66c0.5-1.4,1.8-2.1,3.6-2.1c1.6,0,3.4,0.6,3.4,2.6v5.1h-1.9v-1.1h-0.1c-0.5,0.8-1.5,1.3-2.5,1.2
				C56.7,71.8,55.5,71,55.5,69.5z M60.8,68.9V68c-0.6,0.2-1.2,0.3-1.8,0.4c-0.9,0.1-1.6,0.4-1.6,1.1c0,0.7,0.6,1,1.4,1
				C60.1,70.5,60.8,69.8,60.8,68.9L60.8,68.9z"/>
			<path class="st1" d="M69.8,66.2c-0.2-0.7-0.9-1.1-1.6-1c-0.8,0-1.5,0.4-1.5,0.9c0,0.5,0.3,0.7,1.2,0.9l1.4,0.3
				c1.6,0.3,2.4,1,2.4,2.1c0,1.4-1.5,2.4-3.6,2.4c-2.1,0-3.4-0.8-3.7-2.2l2-0.2c0.2,0.7,0.8,1,1.7,1c0.9,0,1.6-0.4,1.6-0.9
				c0-0.5-0.4-0.7-1.1-0.9l-1.5-0.3c-1.6-0.3-2.4-1-2.4-2.2c0-1.4,1.4-2.3,3.4-2.3c2,0,3.2,0.8,3.4,2.1L69.8,66.2z"/>
			<path class="st1" d="M73.1,67.9c-0.1-1.1,0.3-2.1,1.1-2.9c0.8-0.8,1.8-1.2,2.9-1.1c1.1-0.1,2.1,0.3,2.9,1c0.8,0.8,1.1,1.8,1,2.9
				v0.6h-5.9c0,0.6,0.2,1.1,0.6,1.5s1,0.6,1.6,0.5c0.8,0.1,1.5-0.3,1.8-1l1.9,0.2c-0.4,1.3-1.7,2.2-3.7,2.2
				C74.7,71.8,73.1,70.3,73.1,67.9z M79.1,67.1c0-0.5-0.2-1-0.6-1.3c-0.4-0.3-0.9-0.5-1.4-0.5c-1.1,0-2,0.8-2.1,1.8H79.1z"/>
		</g>
	</g>
</g>
</svg>
