<?xml version="1.0" encoding="UTF-8"?>
<svg width="541px" height="517px" viewBox="0 0 541 517" version="1.1" xmlns="http://www.w3.org/2000/svg" xmlns:xlink="http://www.w3.org/1999/xlink">
    <!-- Generator: sketchtool 56.2 (101010) - https://sketch.com -->
    <title>D3579C24-642E-44F9-8865-A2855F907CB4</title>
    <desc>Created with sketchtool.</desc>
    <defs>
        <linearGradient x1="-3.35964912%" y1="-3.35964912%" x2="97.0175439%" y2="97.0175439%" id="linearGradient-1">
            <stop stop-color="#A894F5" offset="5%"></stop>
            <stop stop-color="#7A66EB" offset="82%"></stop>
            <stop stop-color="#6F5BE8" offset="100%"></stop>
        </linearGradient>
        <rect id="path-2" x="0" y="0" width="114" height="114" rx="3.13"></rect>
        <filter x="-17.5%" y="-14.0%" width="135.1%" height="135.1%" filterUnits="objectBoundingBox" id="filter-3">
            <feOffset dx="0" dy="4" in="SourceAlpha" result="shadowOffsetOuter1"></feOffset>
            <feGaussianBlur stdDeviation="6" in="shadowOffsetOuter1" result="shadowBlurOuter1"></feGaussianBlur>
            <feColorMatrix values="0 0 0 0 0.647058824   0 0 0 0 0.568627451   0 0 0 0 0.960784314  0 0 0 0.303294362 0" type="matrix" in="shadowBlurOuter1"></feColorMatrix>
        </filter>
    </defs>
    <g id="Newsletter-Interface" stroke="none" stroke-width="1" fill="none" fill-rule="evenodd">
        <g id="Newsletter---Home" transform="translate(-112.000000, -173.000000)" fill-rule="nonzero">
            <g id="Hero-Image" transform="translate(112.000000, 173.000000)">
                <g id="Illustration">
                    <circle id="Oval" fill="#D8D6FF" opacity="0.4" cx="260" cy="245" r="186"></circle>
                    <circle id="Oval" fill="#D8D6FF" opacity="0.4" cx="260" cy="245" r="144"></circle>
                    <circle id="Oval" fill="#D8D6FF" opacity="0.4" cx="260" cy="245" r="100"></circle>
                    <path d="M526.5,478.5 C518.491871,478.5 512,472.008129 512,464 C512,455.991871 518.491871,449.5 526.5,449.5 C534.508129,449.5 541,455.991871 541,464 C540.990959,472.004381 534.504381,478.490959 526.5,478.5 L526.5,478.5 Z M526.5,450.818182 C519.219883,450.818182 513.318182,456.719883 513.318182,464 C513.318182,471.280117 519.219883,477.181818 526.5,477.181818 C533.780117,477.181818 539.681818,471.280117 539.681818,464 C539.673722,456.723239 533.776761,450.826278 526.5,450.818182 L526.5,450.818182 Z" id="Shape" fill="#3F3D56"></path>
                    <path d="M330.5,29 C322.491871,29 316,22.5081289 316,14.5 C316,6.49187113 322.491871,0 330.5,0 C338.508129,0 345,6.49187113 345,14.5 C344.990959,22.5043812 338.504381,28.9909595 330.5,29 L330.5,29 Z M330.5,1.31818182 C323.219883,1.31818182 317.318182,7.21988284 317.318182,14.5 C317.318182,21.7801172 323.219883,27.6818182 330.5,27.6818182 C337.780117,27.6818182 343.681818,21.7801172 343.681818,14.5 C343.673722,7.22323913 337.776761,1.32627824 330.5,1.31818182 L330.5,1.31818182 Z" id="Shape" fill="#3F3D56"></path>
                    <path d="M131.5,325.5 C123.491871,325.5 117,319.008129 117,311 C117,302.991871 123.491871,296.5 131.5,296.5 C139.508129,296.5 146,302.991871 146,311 C145.990959,319.004381 139.504381,325.490959 131.5,325.5 L131.5,325.5 Z M131.5,297.818182 C124.219883,297.818182 118.318182,303.719883 118.318182,311 C118.318182,318.280117 124.219883,324.181818 131.5,324.181818 C138.780117,324.181818 144.681818,318.280117 144.681818,311 C144.673722,303.723239 138.776761,297.826278 131.5,297.818182 L131.5,297.818182 Z" id="Shape" fill="#3F3D56"></path>
                    <circle id="Oval" fill="#F2F2F2" cx="436.5" cy="310.5" r="23.5"></circle>
                    <circle id="Oval-Copy-2" fill="#F2F2F2" cx="354.5" cy="67.5" r="23.5"></circle>
                    <path d="M235.600417,464.548051 C235.600417,464.548051 229.462165,464.548051 227.708373,467.180084 C225.95458,469.812117 219.816328,482.972297 219.816328,482.972297 C219.816328,482.972297 208.416738,493.445551 220.693214,494.322895 C232.969691,495.20024 239.107969,492.623066 239.107969,490.868377 C239.107969,489.113688 239.107969,484.726973 241.738648,483.849628 C244.369327,482.972284 247,478.585562 247,476.830873 C247,475.076184 244.369348,463.670706 235.600417,464.548051 Z" id="Path" fill="#2F2E41"></path>
                    <g id="1" transform="translate(413.000000, 101.000000)">
                        <circle id="Oval" fill="#6C63FF" cx="53" cy="100" r="48"></circle>
                        <path d="M23.8551865,33.7217737 C29.993236,48.3573234 45.6139123,56 45.6139123,56 C45.6139123,56 51.282863,39.9137759 45.1448135,25.2782263 C39.006764,10.6426766 23.3860877,3 23.3860877,3 C23.3860877,3 17.717137,19.0862307 23.8551865,33.7217737 Z" id="Path" fill="#3F3D56"></path>
                        <path d="M29.8143751,29.5104297 C42.5169274,39.1505215 46,55.954891 46,55.954891 C46,55.954891 28.8881771,57.1296115 16.1856249,47.4895734 C3.48307258,37.8495353 0,21.0451121 0,21.0451121 C0,21.0451121 17.1118229,19.8703581 29.8143751,29.5104297 Z" id="Path" fill="#6C63FF"></path>
                        <path d="M46.7472135,25.3769051 C40.6918363,40.0124535 46.5357676,56 46.5357676,56 C46.5357676,56 62.1974093,48.2586433 68.2527865,33.6230949 C74.3081637,18.9875465 68.4642324,3 68.4642324,3 C68.4642324,3 52.8025907,10.7413567 46.7472135,25.3769051 Z" id="Path" fill="#3F3D56"></path>
                        <path d="M54.5784444,26.7535515 C57.0355875,42.4936655 47.9490557,57 47.9490557,57 C47.9490557,57 34.8787073,45.9865557 32.4215575,30.2464485 C29.9644077,14.5063412 39.0509462,0 39.0509462,0 C39.0509462,0 52.1212946,11.0134443 54.5784444,26.7535515 Z" id="Path" fill="#6C63FF"></path>
                        <circle id="Oval" fill="#F2F2F2" cx="50" cy="95" r="25"></circle>
                        <circle id="Oval" fill="#3F3D56" cx="58" cy="103" r="8"></circle>
                        <ellipse id="Oval" fill="#6C63FF" cx="96" cy="123.5" rx="14" ry="10.5"></ellipse>
                        <ellipse id="Oval-Copy" fill="#6C63FF" cx="25" cy="142.5" rx="14" ry="10.5"></ellipse>
                    </g>
                    <g id="1-copy" transform="translate(135.108844, 107.132230) rotate(158.000000) translate(-135.108844, -107.132230) translate(84.608844, 33.132230)">
                        <circle id="Oval" fill="#6C63FF" cx="53" cy="100" r="48"></circle>
                        <path d="M23.8551865,33.7217737 C29.993236,48.3573234 45.6139123,56 45.6139123,56 C45.6139123,56 51.282863,39.9137759 45.1448135,25.2782263 C39.006764,10.6426766 23.3860877,3 23.3860877,3 C23.3860877,3 17.717137,19.0862307 23.8551865,33.7217737 Z" id="Path" fill="#3F3D56"></path>
                        <path d="M29.8143751,29.5104297 C42.5169274,39.1505215 46,55.954891 46,55.954891 C46,55.954891 28.8881771,57.1296115 16.1856249,47.4895734 C3.48307258,37.8495353 9.09494702e-13,21.0451121 9.09494702e-13,21.0451121 C9.09494702e-13,21.0451121 17.1118229,19.8703581 29.8143751,29.5104297 Z" id="Path" fill="#6C63FF"></path>
                        <path d="M46.7472135,25.3769051 C40.6918363,40.0124535 46.5357676,56 46.5357676,56 C46.5357676,56 62.1974093,48.2586433 68.2527865,33.6230949 C74.3081637,18.9875465 68.4642324,3 68.4642324,3 C68.4642324,3 52.8025907,10.7413567 46.7472135,25.3769051 Z" id="Path" fill="#3F3D56"></path>
                        <path d="M54.5784444,26.7535515 C57.0355875,42.4936655 47.9490557,57 47.9490557,57 C47.9490557,57 34.8787073,45.9865557 32.4215575,30.2464485 C29.9644077,14.5063412 39.0509462,5.68434189e-12 39.0509462,5.68434189e-12 C39.0509462,5.68434189e-12 52.1212946,11.0134443 54.5784444,26.7535515 Z" id="Path" fill="#6C63FF"></path>
                        <circle id="Oval" fill="#F2F2F2" cx="50" cy="95" r="25"></circle>
                        <circle id="Oval" fill="#3F3D56" cx="47.001954" cy="80.2790555" r="8"></circle>
                        <ellipse id="Oval" fill="#6C63FF" transform="translate(70.855452, 55.942650) rotate(-59.000000) translate(-70.855452, -55.942650) " cx="70.8554518" cy="55.9426498" rx="14" ry="10.5"></ellipse>
                        <ellipse id="Oval-Copy" fill="#6C63FF" transform="translate(17.716010, 64.671894) rotate(53.000000) translate(-17.716010, -64.671894) " cx="17.7160099" cy="64.6718944" rx="14" ry="10.5"></ellipse>
                    </g>
                    <path d="M282.933892,464.677248 C282.933892,464.677248 278.582636,482.33597 282.933892,483.218906 C287.285147,484.101842 289.895901,485.867715 290.766159,488.516516 C291.636417,491.165318 300.338915,494.227996 307.300925,493.34506 C314.262934,492.462124 317.743939,487.633587 315.133192,484.984778 C312.522445,482.33597 299.468657,467.326056 298.59842,464.677248 C297.728182,462.02844 282.933892,464.677248 282.933892,464.677248 Z" id="Path" fill="#2F2E41"></path>
                    <circle id="Oval" fill="#6C63FF" cx="72" cy="468.5" r="48"></circle>
                    <path d="M26.5053272,411.310298 C36.1450962,424.012846 52.9543491,427.5 52.9543491,427.5 C52.9543491,427.5 54.1344419,410.39225 44.4946728,397.689702 C34.8549038,384.987154 18.0456509,381.5 18.0456509,381.5 C18.0456509,381.5 16.8655581,398.60775 26.5053272,411.310298 Z" id="Path" fill="#3F3D56"></path>
                    <path d="M30.7252498,406.358996 C45.3608159,412.4999 53,428.119085 53,428.119085 C53,428.119085 36.910323,433.781902 22.2747569,427.640998 C7.63919078,421.500094 0,405.88093 0,405.88093 C0,405.88093 16.0897102,400.218092 30.7252498,406.358996 Z" id="Path" fill="#6C63FF"></path>
                    <path d="M45.2415336,396.660718 C43.3596401,412.676972 53.0925366,427 53.0925366,427 C53.0925366,427 65.8765729,415.355536 67.7584664,399.339282 C69.6403599,383.323028 59.9074634,369 59.9074634,369 C59.9074634,369 47.1234339,380.644458 45.2415336,396.660718 Z" id="Path" fill="#3F3D56"></path>
                    <path d="M51.623186,398.501334 C58.2760125,412.860742 53.0460154,429 53.0460154,429 C53.0460154,429 37.0296428,421.858048 30.3768163,407.498666 C23.7239898,393.139284 28.9539801,377 28.9539801,377 C28.9539801,377 44.9703526,384.141919 51.623186,398.501334 Z" id="Path" fill="#6C63FF"></path>
                    <circle id="Oval" fill="#F2F2F2" cx="54" cy="471.5" r="25"></circle>
                    <circle id="Oval" fill="#3F3D56" cx="44" cy="479.5" r="8"></circle>
                    <circle id="Oval" fill="#6C63FF" cx="263" cy="446.5" r="48"></circle>
                    <path d="M242.242509,376.458799 C246.35696,391.922775 260.44987,401.5 260.44987,401.5 C260.44987,401.5 267.871949,386.005177 263.757498,370.541201 C259.643048,355.077225 245.550138,345.5 245.550138,345.5 C245.550138,345.5 238.128039,360.994803 242.242509,376.458799 Z" id="Path" fill="#3F3D56"></path>
                    <path d="M248.295285,373.474501 C259.617122,384.520194 261,401.5 261,401.5 C261,401.5 244.026553,400.571192 232.704715,389.525499 C221.382878,378.479806 220,361.5 220,361.5 C220,361.5 236.973441,362.428795 248.295285,373.474501 Z" id="Path" fill="#6C63FF"></path>
                    <path d="M266.794471,370.531189 C259.260636,384.614442 262.858783,401.5 262.858783,401.5 C262.858783,401.5 278.67169,395.552091 286.205525,381.468811 C293.73936,367.385531 290.14122,350.5 290.14122,350.5 C290.14122,350.5 274.328313,356.447916 266.794471,370.531189 Z" id="Path" fill="#3F3D56"></path>
                    <path d="M272.982423,372.131095 C273.488087,388.147351 262.915588,401.5 262.915588,401.5 C262.915588,401.5 251.523241,388.885174 251.017577,372.868911 C250.511913,356.852649 261.084412,343.5 261.084412,343.5 C261.084412,343.5 272.476759,356.114833 272.982423,372.131095 Z" id="Path" fill="#6C63FF"></path>
                    <circle id="Oval" fill="#F2F2F2" cx="261" cy="441.5" r="25"></circle>
                    <circle id="Oval" fill="#3F3D56" cx="261" cy="426.5" r="8"></circle>
                    <rect id="Rectangle" fill="#2F2E41" x="145" y="493.5" width="252" height="2"></rect>
                    <path d="M118,429.5 L140,412.5" id="Path" fill="#3F3D56"></path>
                    <path d="M119,444.5 C125.761823,439.195522 132.761823,434.195522 140,429.5" id="Path" fill="#3F3D56"></path>
                    <path d="M134,442.5 C141.782553,438.739563 148.882787,433.667967 155,427.5" id="Path" fill="#3F3D56"></path>
                    <circle id="Oval" fill="#3F3D56" cx="79" cy="502.5" r="6"></circle>
                    <path d="M376.5,493.5 C368.491871,493.5 362,487.008129 362,479 C362,470.991871 368.491871,464.5 376.5,464.5 C384.508129,464.5 391,470.991871 391,479 C390.990959,487.004381 384.504381,493.490959 376.5,493.5 L376.5,493.5 Z M376.5,465.818182 C369.219883,465.818182 363.318182,471.719883 363.318182,479 C363.318182,486.280117 369.219883,492.181818 376.5,492.181818 C383.780117,492.181818 389.681818,486.280117 389.681818,479 C389.673722,471.723239 383.776761,465.826278 376.5,465.818182 L376.5,465.818182 Z" id="Shape" fill="#3F3D56"></path>
                </g>
                <g id="114px-SVG-Logo" transform="translate(203.000000, 188.000000)">
                    <g id="Rectangle">
                        <use fill="black" fill-opacity="1" filter="url(#filter-3)" xlink:href="#path-2"></use>
                        <use fill="url(#linearGradient-1)" xlink:href="#path-2"></use>
                    </g>
                    <path d="M53.58,25 L53.58,49.44 C53.58,57.8 46.5,62.44 36.58,62.44 C26.66,62.44 19.58,57.76 19.58,49.44 L19.58,25 L28.24,25 L28.24,49.16 C28.24,53.16 31.78,55.51 36.56,55.51 C41.34,55.51 45,53.11 45,49.16 L45,25 L53.58,25 Z" id="Path" fill="#FFFFFF"></path>
                    <polygon id="Path" fill="#FFFFFF" points="77.08 37.6 77.4 37.6 85.7 25 95.48 25 83 43.48 95.76 62 85.76 62 77.4 49.34 77.08 49.34 68.68 62 58.76 62 71.58 43.48 59 25 68.82 25"></polygon>
                    <path d="M13.64,88.79 L13.64,76.12 L18.5,76.12 C22.68,76.12 25.22,78.5 25.22,82.45 C25.22,86.4 22.68,88.79 18.4,88.79 L13.64,88.79 Z M18.28,86.79 C21.21,86.79 22.69,85.34 22.69,82.43 C22.69,79.52 21.21,78.09 18.35,78.09 L16.18,78.09 L16.18,86.79 L18.28,86.79 Z" id="Shape" fill="#FFFFFF"></path>
                    <path d="M27,86.13 C27,83.99 29,83.44 31,83.24 C32.86,83.06 33.61,83.03 33.61,82.38 L33.61,82.38 C33.61,81.44 32.98,80.91 31.82,80.91 C30.9154478,80.8105102 30.0475998,81.2966657 29.66,82.12 L27.34,81.82 C27.89,80.09 29.59,79.2 31.81,79.2 C33.81,79.2 36.09,79.95 36.09,82.46 L36.09,88.82 L33.74,88.82 L33.74,87.52 L33.66,87.52 C32.982255,88.5460056 31.7942537,89.1150159 30.57,89 C28.56,89 27,88 27,86.13 Z M33.62,85.38 L33.62,84.26 C32.8864433,84.5250941 32.1185929,84.683379 31.34,84.73 C30.23,84.87 29.4,85.23 29.4,86.09 C29.4,86.95 30.14,87.34 31.17,87.34 C32.71,87.34 33.66,86.44 33.66,85.38 L33.62,85.38 Z" id="Shape" fill="#FFFFFF"></path>
                    <path d="M43.91,81 L41.83,81 L41.83,85.92 C41.83,86.82 42.33,87.02 42.95,87.02 C43.1958346,87.0159469 43.4405423,86.9857775 43.68,86.93 L44.1,88.68 C43.6261559,88.8218738 43.1346109,88.8959422 42.64,88.9 C40.77,88.9 39.33,88.07 39.34,86.29 L39.34,81 L37.85,81 L37.85,79.29 L39.34,79.29 L39.34,77 L41.83,77 L41.83,79.28 L43.91,79.28 L43.91,81 Z" id="Path" fill="#FFFFFF"></path>
                    <path d="M45.5,86.13 C45.5,83.99 47.5,83.44 49.5,83.24 C51.36,83.06 52.1,83.03 52.1,82.38 L52.1,82.38 C52.1,81.44 51.47,80.91 50.32,80.91 C49.4154478,80.8105102 48.5475998,81.2966657 48.16,82.12 L45.84,81.82 C46.39,80.09 48.09,79.2 50.31,79.2 C52.31,79.2 54.59,79.95 54.59,82.46 L54.59,88.82 L52.2,88.82 L52.2,87.52 L52.12,87.52 C51.4354939,88.5543983 50.234133,89.1242747 49,89 C47,89 45.5,88 45.5,86.13 Z M52.11,85.38 L52.11,84.26 C51.3769816,84.5269972 50.6088511,84.6853399 49.83,84.73 C48.72,84.87 47.89,85.23 47.89,86.09 C47.89,86.95 48.63,87.34 49.67,87.34 C51.16,87.34 52.11,86.44 52.11,85.38 Z" id="Shape" fill="#FFFFFF"></path>
                    <path d="M57.21,76.12 L59.69,76.12 L59.69,80.86 L59.8,80.86 C60.3704795,79.7459043 61.5515372,79.0805752 62.8,79.17 C65.23,79.17 67.15,80.89 67.15,84.05 C67.15,87.21 65.3,89 62.81,89 C61.5723573,89.0767804 60.4023648,88.4293845 59.81,87.34 L59.66,87.34 L59.66,88.83 L57.21,88.83 L57.21,76.12 Z M62.12,87.12 C63.76,87.12 64.63,85.82 64.63,84.04 C64.63,82.26 63.78,81.04 62.12,81.04 C60.46,81.04 59.65,82.24 59.65,84.04 C59.65,85.84 60.54,87.12 62.12,87.12 L62.12,87.12 Z" id="Shape" fill="#FFFFFF"></path>
                    <path d="M68.79,86.13 C68.79,83.99 70.79,83.44 72.79,83.24 C74.65,83.06 75.4,83.03 75.4,82.38 L75.4,82.38 C75.4,81.44 74.77,80.91 73.62,80.91 C72.7141648,80.804143 71.8428402,81.2922461 71.46,82.12 L69.14,81.82 C69.69,80.09 71.39,79.2 73.6,79.2 C75.6,79.2 77.88,79.95 77.88,82.46 L77.88,88.82 L75.5,88.82 L75.5,87.52 L75.41,87.52 C74.732255,88.5460056 73.5442537,89.1150159 72.32,89 C70.31,89 68.79,88 68.79,86.13 Z M75.41,85.38 L75.41,84.26 C74.6764433,84.5250941 73.9085929,84.683379 73.13,84.73 C72.02,84.87 71.19,85.23 71.19,86.09 C71.19,86.95 71.93,87.34 72.96,87.34 C74.46,87.34 75.41,86.44 75.41,85.38 L75.41,85.38 Z" id="Shape" fill="#FFFFFF"></path>
                    <path d="M86.46,82 C86.1650435,81.2045209 85.3620137,80.71608 84.52,80.82 C83.52,80.82 82.69,81.26 82.7,81.91 C82.71,82.56 83.12,82.79 84.19,83.01 L85.99,83.35 C87.99,83.74 88.99,84.57 88.99,85.93 C88.99,87.73 87.13,88.93 84.49,88.93 C81.85,88.93 80.28,87.93 79.97,86.15 L82.35,86 C82.56,86.86 83.35,87.3 84.44,87.3 C85.53,87.3 86.44,86.81 86.44,86.16 C86.44,85.51 86,85.26 85,85.07 L83.2,84.73 C81.2,84.35 80.2,83.44 80.2,82.05 C80.2,80.29 81.93,79.17 84.47,79.17 C87.01,79.17 88.36,80.17 88.7,81.8 L86.46,82 Z" id="Path" fill="#FFFFFF"></path>
                    <path d="M90.56,84.1 C90.488234,82.7593769 90.9944341,81.4522742 91.9504234,80.5096688 C92.9064127,79.5670633 94.2205219,79.079341 95.56,79.17 C98.15,79.17 100.37,80.63 100.37,83.97 L100.37,84.65 L93,84.65 C92.961845,85.3648998 93.2370162,86.0609549 93.7537,86.5565104 C94.2703839,87.052066 94.977315,87.2979528 95.69,87.23 C96.6243034,87.3353243 97.524294,86.8433294 97.94,86 L100.26,86.24 C99.82,87.9 98.13,89 95.68,89 C92.5,89 90.56,87.08 90.56,84.1 Z M98,83.15 C98.0046143,82.5261643 97.7477016,81.928919 97.2916307,81.5032528 C96.8355598,81.0775867 96.2220361,80.8624246 95.6,80.91 C94.9577652,80.8604437 94.3222739,81.0689761 93.8342649,81.4894146 C93.3462559,81.9098532 93.0460024,82.5075008 93,83.15 L98,83.15 Z" id="Shape" fill="#FFFFFF"></path>
                </g>
            </g>
        </g>
    </g>
</svg>